<?xml version="1.0" encoding="UTF-8"?>
<svg xmlns="http://www.w3.org/2000/svg"
     xmlns:inkscape="http://www.inkscape.org/namespaces/inkscape"
     width="1800" height="980" viewBox="0 0 1800 980" version="1.1">
  <title>Sparse Koopman autoencoder story diagram</title>
  <desc>Editable method figure for a paper on sparse Koopman autoencoders for multibasin dynamics. Panels show the multibasin problem, sparse Koopman model, support-as-basin-chart idea, and support-routed prediction with periodic re-encoding.</desc>

  <defs>
    <marker id="arrow-dark" markerWidth="12" markerHeight="12" refX="10" refY="6" orient="auto" markerUnits="strokeWidth">
      <path d="M 0 0 L 12 6 L 0 12 z" fill="#334155"/>
    </marker>
    <marker id="arrow-blue" markerWidth="10" markerHeight="10" refX="8" refY="5" orient="auto" markerUnits="strokeWidth">
      <path d="M 0 0 L 10 5 L 0 10 z" fill="#2563eb"/>
    </marker>
    <marker id="arrow-orange" markerWidth="10" markerHeight="10" refX="8" refY="5" orient="auto" markerUnits="strokeWidth">
      <path d="M 0 0 L 10 5 L 0 10 z" fill="#ea580c"/>
    </marker>
    <marker id="arrow-green" markerWidth="10" markerHeight="10" refX="8" refY="5" orient="auto" markerUnits="strokeWidth">
      <path d="M 0 0 L 10 5 L 0 10 z" fill="#15803d"/>
    </marker>
    <filter id="soft-shadow" x="-10%" y="-10%" width="120%" height="120%">
      <feDropShadow dx="0" dy="2" stdDeviation="2" flood-color="#0f172a" flood-opacity="0.12"/>
    </filter>
    <style>
      .bg { fill: #ffffff; }
      .panel { fill: #ffffff; stroke: #1e3a8a; stroke-width: 2.2; }
      .panel-green { fill: #ffffff; stroke: #15803d; stroke-width: 2.2; }
      .panel-purple { fill: #ffffff; stroke: #6d28d9; stroke-width: 2.2; }
      .panel-orange { fill: #ffffff; stroke: #c2410c; stroke-width: 2.2; }
      .title { font-family: Arial; font-size: 35px; font-weight: 700; fill: #0f172a; }
      .subtitle { font-family: Arial; font-size: 20px; font-style: italic; fill: #334155; }
      .panel-title { font-family: Arial; font-size: 18px; font-weight: 700; fill: #172554; }
      .panel-title-green { font-family: Arial; font-size: 18px; font-weight: 700; fill: #14532d; }
      .panel-title-purple { font-family: Arial; font-size: 18px; font-weight: 700; fill: #4c1d95; }
      .label { font-family: Arial; font-size: 15px; fill: #0f172a; }
      .label-small { font-family: Arial; font-size: 12px; fill: #334155; }
      .label-tiny { font-family: Arial; font-size: 10px; fill: #334155; }
      .math { font-family: serif; font-size: 18px; font-style: italic; fill: #0f172a; }
      .math-small { font-family: serif; font-size: 14px; font-style: italic; fill: #0f172a; }
      .box { fill: #f8fafc; stroke: #64748b; stroke-width: 1.4; }
      .box-blue { fill: #eff6ff; stroke: #2563eb; stroke-width: 1.6; }
      .box-green { fill: #f0fdf4; stroke: #16a34a; stroke-width: 1.6; }
      .box-orange { fill: #fff7ed; stroke: #ea580c; stroke-width: 1.6; }
      .box-purple { fill: #f5f3ff; stroke: #7c3aed; stroke-width: 1.6; }
      .box-red { fill: #fff1f2; stroke: #dc2626; stroke-width: 1.6; }
      .flow { fill: none; stroke: #334155; stroke-width: 2.4; marker-end: url(#arrow-dark); }
      .flow-thin { fill: none; stroke: #475569; stroke-width: 1.6; marker-end: url(#arrow-dark); }
      .flow-dashed { fill: none; stroke: #64748b; stroke-width: 1.5; stroke-dasharray: 5 5; marker-end: url(#arrow-dark); }
      .dash { fill: none; stroke: #94a3b8; stroke-width: 1.4; stroke-dasharray: 6 5; }
      .axis { stroke: #0f172a; stroke-width: 1.6; }
      .cell { fill: #f8fafc; stroke: #334155; stroke-width: 0.9; }
      .cell-blue { fill: #60a5fa; stroke: #1e40af; stroke-width: 0.9; }
      .cell-orange { fill: #fb923c; stroke: #9a3412; stroke-width: 0.9; }
      .cell-green { fill: #86efac; stroke: #166534; stroke-width: 0.9; }
      .cell-purple { fill: #a78bfa; stroke: #5b21b6; stroke-width: 0.9; }
      .cell-dark { fill: #334155; stroke: #334155; stroke-width: 0.9; }
      .matrix-zero { fill: #f8fafc; stroke: #cbd5e1; stroke-width: 0.8; }
      .matrix-on { fill: #2563eb; stroke: #1d4ed8; stroke-width: 0.8; }
      .matrix-penalty { fill: #bfdbfe; stroke: #3b82f6; stroke-width: 0.8; }
      .basin-blue { fill: #dbeafe; stroke: none; opacity: 0.65; }
      .basin-orange { fill: #ffedd5; stroke: none; opacity: 0.75; }
      .basin-green { fill: #dcfce7; stroke: none; opacity: 0.72; }
      .contour-blue { fill: none; stroke: #2563eb; stroke-width: 1.3; opacity: 0.85; }
      .contour-orange { fill: none; stroke: #ea580c; stroke-width: 1.3; opacity: 0.85; }
      .contour-green { fill: none; stroke: #16a34a; stroke-width: 1.3; opacity: 0.85; }
      .star-line { stroke: #ca8a04; stroke-width: 2; stroke-linecap: round; }
    </style>
  </defs>

  <rect class="bg" x="0" y="0" width="1800" height="980"/>

  <g id="title-block" inkscape:label="Title block">
    <text class="title" x="900" y="43" text-anchor="middle">Sparse Koopman Autoencoders for Multibasin Dynamical Systems</text>
    <text class="subtitle" x="900" y="75" text-anchor="middle">Sparse latent supports form label-free charts for basin-local linear prediction</text>
  </g>

  <!-- Panel A -->
  <g id="panel-a-problem" inkscape:label="Panel A - multibasin problem">
    <rect class="panel" x="20" y="100" width="520" height="370" rx="8"/>
    <rect x="36" y="112" width="34" height="30" rx="3" fill="#1e3a8a"/>
    <text x="53" y="134" text-anchor="middle" font-family="Arial" font-weight="700" font-size="22" fill="#ffffff">A</text>
    <text class="panel-title" x="84" y="132">Problem: one global linear map fails on multibasin systems</text>

    <g id="state-space-with-three-basins" inkscape:label="State space with three basins">
      <rect x="44" y="156" width="278" height="196" rx="8" fill="#ffffff" stroke="#cbd5e1" stroke-width="1.2"/>
      <path class="axis" d="M 66 328 L 300 328"/>
      <path class="axis" d="M 66 328 L 66 174"/>
      <path d="M 300 328 L 291 324 L 291 332 z" fill="#0f172a"/>
      <path d="M 66 174 L 62 183 L 70 183 z" fill="#0f172a"/>
      <text class="math-small" x="303" y="344">x1</text>
      <text class="math-small" x="50" y="174">x2</text>

      <ellipse class="basin-blue" cx="138" cy="224" rx="80" ry="54"/>
      <ellipse class="basin-orange" cx="250" cy="224" rx="66" ry="52"/>
      <ellipse class="basin-green" cx="199" cy="300" rx="76" ry="44"/>

      <g id="blue-basin-contours" inkscape:label="Blue basin contours">
        <ellipse class="contour-blue" cx="138" cy="224" rx="18" ry="12"/>
        <ellipse class="contour-blue" cx="138" cy="224" rx="34" ry="22"/>
        <ellipse class="contour-blue" cx="138" cy="224" rx="52" ry="34"/>
        <ellipse class="contour-blue" cx="138" cy="224" rx="70" ry="45"/>
        <circle cx="138" cy="224" r="7" fill="#1d4ed8" stroke="#0f172a" stroke-width="1"/>
        <path d="M 86 189 C 105 187 125 196 136 214" fill="none" stroke="#2563eb" stroke-width="1.5" marker-end="url(#arrow-blue)"/>
        <path d="M 93 250 C 109 238 122 229 132 224" fill="none" stroke="#2563eb" stroke-width="1.5" marker-end="url(#arrow-blue)"/>
        <path d="M 188 190 C 172 192 154 204 143 219" fill="none" stroke="#2563eb" stroke-width="1.5" marker-end="url(#arrow-blue)"/>
      </g>

      <g id="orange-basin-contours" inkscape:label="Orange basin contours">
        <ellipse class="contour-orange" cx="250" cy="224" rx="17" ry="12"/>
        <ellipse class="contour-orange" cx="250" cy="224" rx="32" ry="22"/>
        <ellipse class="contour-orange" cx="250" cy="224" rx="49" ry="34"/>
        <ellipse class="contour-orange" cx="250" cy="224" rx="63" ry="45"/>
        <circle cx="250" cy="224" r="7" fill="#ea580c" stroke="#0f172a" stroke-width="1"/>
        <path d="M 288 187 C 272 193 259 207 252 219" fill="none" stroke="#ea580c" stroke-width="1.5" marker-end="url(#arrow-orange)"/>
        <path d="M 284 254 C 268 242 257 232 252 225" fill="none" stroke="#ea580c" stroke-width="1.5" marker-end="url(#arrow-orange)"/>
        <path d="M 213 196 C 228 200 241 211 248 221" fill="none" stroke="#ea580c" stroke-width="1.5" marker-end="url(#arrow-orange)"/>
      </g>

      <g id="green-basin-contours" inkscape:label="Green basin contours">
        <ellipse class="contour-green" cx="199" cy="300" rx="18" ry="10"/>
        <ellipse class="contour-green" cx="199" cy="300" rx="36" ry="20"/>
        <ellipse class="contour-green" cx="199" cy="300" rx="56" ry="30"/>
        <circle cx="199" cy="300" r="7" fill="#16a34a" stroke="#0f172a" stroke-width="1"/>
        <path d="M 145 280 C 164 284 184 291 194 298" fill="none" stroke="#16a34a" stroke-width="1.5" marker-end="url(#arrow-green)"/>
        <path d="M 255 278 C 238 283 218 291 202 298" fill="none" stroke="#16a34a" stroke-width="1.5" marker-end="url(#arrow-green)"/>
        <path d="M 214 333 C 207 321 202 311 200 303" fill="none" stroke="#16a34a" stroke-width="1.5" marker-end="url(#arrow-green)"/>
      </g>

      <text class="label-small" x="88" y="186" fill="#1d4ed8">Basin A</text>
      <text class="label-small" x="246" y="183" fill="#ea580c">Basin B</text>
      <text class="label-small" x="209" y="345" fill="#15803d">Basin C</text>
    </g>

    <g id="problem-bullets" inkscape:label="Problem bullets">
      <circle cx="346" cy="176" r="3.5" fill="#0f172a"/>
      <text class="label" x="358" y="181">Multiple attractors create</text>
      <text class="label" x="358" y="200">incompatible local dynamics.</text>
      <circle cx="346" cy="226" r="3.5" fill="#0f172a"/>
      <text class="label" x="358" y="231">A single finite-dimensional</text>
      <text class="label" x="358" y="250">linear model must average them.</text>
      <circle cx="346" cy="276" r="3.5" fill="#0f172a"/>
      <text class="label" x="358" y="281">Training/deployment has no</text>
      <text class="label" x="358" y="300">basin count or basin labels.</text>
    </g>

    <g id="global-vs-local-charts" inkscape:label="Global vs local charts">
      <rect class="box-red" x="44" y="374" width="220" height="72" rx="6"/>
      <text class="label" x="154" y="395" text-anchor="middle" fill="#991b1b">Single global K</text>
      <g transform="translate(68 406)">
        <rect class="matrix-zero" x="0" y="0" width="12" height="12"/><rect class="matrix-on" x="14" y="0" width="12" height="12"/><rect class="matrix-zero" x="28" y="0" width="12" height="12"/><rect class="matrix-on" x="42" y="0" width="12" height="12"/>
        <rect class="matrix-on" x="0" y="14" width="12" height="12"/><rect class="matrix-zero" x="14" y="14" width="12" height="12"/><rect class="matrix-on" x="28" y="14" width="12" height="12"/><rect class="matrix-zero" x="42" y="14" width="12" height="12"/>
        <rect class="matrix-zero" x="0" y="28" width="12" height="12"/><rect class="matrix-on" x="14" y="28" width="12" height="12"/><rect class="matrix-zero" x="28" y="28" width="12" height="12"/><rect class="matrix-on" x="42" y="28" width="12" height="12"/>
      </g>
      <text x="208" y="432" text-anchor="middle" font-family="Arial" font-size="48" font-weight="700" fill="#dc2626">X</text>

      <rect class="box-green" x="280" y="374" width="236" height="72" rx="6"/>
      <text class="label" x="398" y="395" text-anchor="middle" fill="#166534">Basin-local charts</text>
      <g transform="translate(302 407)">
        <rect x="0" y="0" width="42" height="28" rx="2" fill="#eff6ff" stroke="#2563eb"/>
        <path d="M 7 22 C 15 8 25 8 35 13" fill="none" stroke="#2563eb" stroke-width="1.2" marker-end="url(#arrow-blue)"/>
        <text x="21" y="51" text-anchor="middle" font-family="Arial" font-size="24" fill="#16a34a">v</text>
      </g>
      <g transform="translate(380 407)">
        <rect x="0" y="0" width="42" height="28" rx="2" fill="#fff7ed" stroke="#ea580c"/>
        <path d="M 8 8 C 18 22 29 22 36 11" fill="none" stroke="#ea580c" stroke-width="1.2" marker-end="url(#arrow-orange)"/>
        <text x="21" y="51" text-anchor="middle" font-family="Arial" font-size="24" fill="#16a34a">v</text>
      </g>
      <g transform="translate(458 407)">
        <rect x="0" y="0" width="42" height="28" rx="2" fill="#f0fdf4" stroke="#16a34a"/>
        <path d="M 6 17 C 18 12 28 13 36 20" fill="none" stroke="#16a34a" stroke-width="1.2" marker-end="url(#arrow-green)"/>
        <text x="21" y="51" text-anchor="middle" font-family="Arial" font-size="24" fill="#16a34a">v</text>
      </g>
    </g>
  </g>

  <!-- Panel B -->
  <g id="panel-b-model" inkscape:label="Panel B - sparse Koopman autoencoder">
    <rect class="panel" x="570" y="100" width="1210" height="370" rx="8"/>
    <rect x="586" y="112" width="34" height="30" rx="3" fill="#1e3a8a"/>
    <text x="603" y="134" text-anchor="middle" font-family="Arial" font-weight="700" font-size="22" fill="#ffffff">B</text>
    <text class="panel-title" x="634" y="132">Proposed model: sparse latent Koopman autoencoder</text>

    <g id="main-model-flow" inkscape:label="Main model flow">
      <text class="label-small" x="610" y="165">Observed state</text>
      <rect class="box-purple" x="615" y="178" width="78" height="48" rx="6"/>
      <text class="math" x="654" y="209" text-anchor="middle">x_t</text>
      <path class="flow" d="M 696 202 L 755 202"/>

      <rect class="box-purple" x="760" y="150" width="148" height="104" rx="6"/>
      <text class="label" x="834" y="176" text-anchor="middle">Sparse encoder</text>
      <text class="math" x="834" y="202" text-anchor="middle">E_theta</text>
      <text class="label-small" x="834" y="226" text-anchor="middle">iterative shrinkage</text>
      <path class="flow" d="M 910 202 L 975 202"/>

      <text class="label-small" x="1015" y="166" text-anchor="middle">Sparse latent z_t</text>
      <g id="latent-code-zt" inkscape:label="Sparse latent z_t" transform="translate(980 184)">
        <rect class="cell" x="0" y="0" width="19" height="26"/>
        <rect class="cell" x="21" y="0" width="19" height="26"/>
        <rect class="cell-purple" x="42" y="0" width="19" height="26"/>
        <rect class="cell" x="63" y="0" width="19" height="26"/>
        <rect class="cell" x="84" y="0" width="19" height="26"/>
        <rect class="cell-purple" x="105" y="0" width="19" height="26"/>
        <rect class="cell" x="126" y="0" width="19" height="26"/>
        <rect class="cell" x="147" y="0" width="19" height="26"/>
        <rect class="cell" x="168" y="0" width="19" height="26"/>
        <rect class="cell-purple" x="189" y="0" width="19" height="26"/>
        <rect class="cell" x="210" y="0" width="19" height="26"/>
        <text class="label-tiny" x="156" y="18" text-anchor="middle">...</text>
      </g>
      <text class="label-small" x="1094" y="229" text-anchor="middle">small active support</text>
      <path class="flow" d="M 1218 202 L 1280 202"/>

      <rect class="box-blue" x="1285" y="162" width="92" height="80" rx="7"/>
      <text class="math" x="1331" y="193" text-anchor="middle">K</text>
      <text class="label-small" x="1331" y="216" text-anchor="middle">linear step</text>
      <path class="flow" d="M 1380 202 L 1443 202"/>

      <text class="label-small" x="1494" y="166" text-anchor="middle">Predicted latent</text>
      <g id="latent-code-zthat" inkscape:label="Predicted sparse latent" transform="translate(1448 184)">
        <rect class="cell" x="0" y="0" width="19" height="26"/>
        <rect class="cell" x="21" y="0" width="19" height="26"/>
        <rect class="cell-blue" x="42" y="0" width="19" height="26"/>
        <rect class="cell" x="63" y="0" width="19" height="26"/>
        <rect class="cell" x="84" y="0" width="19" height="26"/>
        <rect class="cell-blue" x="105" y="0" width="19" height="26"/>
        <rect class="cell" x="126" y="0" width="19" height="26"/>
        <rect class="cell" x="147" y="0" width="19" height="26"/>
        <rect class="cell" x="168" y="0" width="19" height="26"/>
        <rect class="cell-blue" x="189" y="0" width="19" height="26"/>
        <rect class="cell" x="210" y="0" width="19" height="26"/>
        <text class="label-tiny" x="156" y="18" text-anchor="middle">...</text>
      </g>
      <path class="flow" d="M 1686 202 L 1718 202"/>

      <rect class="box-green" x="1600" y="150" width="112" height="104" rx="6"/>
      <text class="label" x="1656" y="177" text-anchor="middle">Decoder</text>
      <text class="math" x="1656" y="205" text-anchor="middle">D_phi</text>
      <text class="label-small" x="1656" y="228" text-anchor="middle">state map</text>
      <path class="flow" d="M 1714 202 L 1740 202"/>
      <rect class="box-purple" x="1728" y="178" width="48" height="48" rx="6"/>
      <text class="math" x="1752" y="209" text-anchor="middle">xhat</text>
    </g>

    <g id="encoder-equations" inkscape:label="Sparse encoder equations">
      <rect class="box-purple" x="606" y="282" width="348" height="154" rx="8" stroke-dasharray="6 4"/>
      <text class="label" x="628" y="307" font-weight="700">Sparse coding inference</text>
      <text class="math-small" x="636" y="334">c_t = f_theta(x_t)</text>
      <text class="math-small" x="636" y="361">u^(q+1) = shrink(S u^(q) + c_t, tau)</text>
      <text class="math-small" x="636" y="388">z_t = u^(Q),    S(x_t) = {i : |z_i| &gt; epsilon}</text>
      <text class="label-small" x="636" y="416">The coefficients are continuous; the active set is discrete.</text>
    </g>

    <g id="support-restricted-transition" inkscape:label="Support restricted transition">
      <rect class="box-blue" x="980" y="282" width="376" height="154" rx="8"/>
      <text class="label" x="1002" y="307" font-weight="700">How support affects prediction</text>
      <text class="label-small" x="1002" y="329">Only active latent coordinates participate strongly.</text>
      <g transform="translate(1004 346)">
        <text class="label-tiny" x="28" y="-8" text-anchor="middle">shared K</text>
        <rect class="matrix-on" x="0" y="0" width="11" height="11"/><rect class="matrix-zero" x="13" y="0" width="11" height="11"/><rect class="matrix-on" x="26" y="0" width="11" height="11"/><rect class="matrix-zero" x="39" y="0" width="11" height="11"/>
        <rect class="matrix-zero" x="0" y="13" width="11" height="11"/><rect class="matrix-on" x="13" y="13" width="11" height="11"/><rect class="matrix-zero" x="26" y="13" width="11" height="11"/><rect class="matrix-on" x="39" y="13" width="11" height="11"/>
        <rect class="matrix-on" x="0" y="26" width="11" height="11"/><rect class="matrix-zero" x="13" y="26" width="11" height="11"/><rect class="matrix-on" x="26" y="26" width="11" height="11"/><rect class="matrix-zero" x="39" y="26" width="11" height="11"/>
        <rect class="matrix-zero" x="0" y="39" width="11" height="11"/><rect class="matrix-on" x="13" y="39" width="11" height="11"/><rect class="matrix-zero" x="26" y="39" width="11" height="11"/><rect class="matrix-on" x="39" y="39" width="11" height="11"/>
      </g>
      <path class="flow-thin" d="M 1072 371 L 1116 371"/>
      <g transform="translate(1125 346)">
        <text class="label-tiny" x="36" y="-8" text-anchor="middle">active submatrix K_S</text>
        <rect class="matrix-on" x="0" y="0" width="11" height="11"/><rect class="matrix-zero" x="13" y="0" width="11" height="11"/><rect class="matrix-on" x="26" y="0" width="11" height="11"/><rect class="matrix-zero" x="39" y="0" width="11" height="11"/><rect class="matrix-zero" x="52" y="0" width="11" height="11"/>
        <rect class="matrix-zero" x="0" y="13" width="11" height="11"/><rect class="matrix-zero" x="13" y="13" width="11" height="11"/><rect class="matrix-zero" x="26" y="13" width="11" height="11"/><rect class="matrix-zero" x="39" y="13" width="11" height="11"/><rect class="matrix-zero" x="52" y="13" width="11" height="11"/>
        <rect class="matrix-on" x="0" y="26" width="11" height="11"/><rect class="matrix-zero" x="13" y="26" width="11" height="11"/><rect class="matrix-on" x="26" y="26" width="11" height="11"/><rect class="matrix-zero" x="39" y="26" width="11" height="11"/><rect class="matrix-zero" x="52" y="26" width="11" height="11"/>
        <rect class="matrix-zero" x="0" y="39" width="11" height="11"/><rect class="matrix-zero" x="13" y="39" width="11" height="11"/><rect class="matrix-zero" x="26" y="39" width="11" height="11"/><rect class="matrix-zero" x="39" y="39" width="11" height="11"/><rect class="matrix-zero" x="52" y="39" width="11" height="11"/>
        <rect class="matrix-zero" x="0" y="52" width="11" height="11"/><rect class="matrix-zero" x="13" y="52" width="11" height="11"/><rect class="matrix-zero" x="26" y="52" width="11" height="11"/><rect class="matrix-zero" x="39" y="52" width="11" height="11"/><rect class="matrix-zero" x="52" y="52" width="11" height="11"/>
      </g>
      <text class="label-small" x="1232" y="368">same parameters,</text>
      <text class="label-small" x="1232" y="387">different active columns</text>
      <text class="label-small" x="1002" y="423">A structure penalty can encourage inactive cross-support entries to stay small.</text>
    </g>

    <g id="training-objectives" inkscape:label="Training objectives">
      <rect class="box-orange" x="1384" y="282" width="360" height="154" rx="8"/>
      <text class="label" x="1406" y="307" font-weight="700">Training objectives</text>
      <circle cx="1412" cy="333" r="7" fill="#e0e7ff" stroke="#4f46e5"/>
      <path d="M 1406 333 C 1410 325 1415 341 1421 333" fill="none" stroke="#4f46e5" stroke-width="1.5"/>
      <text class="label-small" x="1430" y="338">predict future state</text>
      <circle cx="1412" cy="362" r="7" fill="#dcfce7" stroke="#16a34a"/>
      <path d="M 1406 362 C 1412 354 1418 354 1424 362" fill="none" stroke="#16a34a" stroke-width="1.5"/>
      <text class="label-small" x="1430" y="367">reconstruct observed state</text>
      <circle cx="1412" cy="391" r="7" fill="#dbeafe" stroke="#2563eb"/>
      <path d="M 1406 396 L 1423 386" fill="none" stroke="#2563eb" stroke-width="1.8"/>
      <text class="label-small" x="1430" y="396">keep latent evolution linear</text>
      <circle cx="1412" cy="420" r="7" fill="#ffedd5" stroke="#ea580c"/>
      <rect x="1407" y="413" width="3" height="12" fill="#ea580c"/><rect x="1413" y="408" width="3" height="17" fill="#ea580c"/><rect x="1419" y="416" width="3" height="9" fill="#ea580c"/>
      <text class="label-small" x="1430" y="425">induce sparse active supports</text>
    </g>
  </g>

  <!-- Panel C -->
  <g id="panel-c-supports" inkscape:label="Panel C - supports as basin indicators">
    <rect class="panel-green" x="20" y="500" width="770" height="340" rx="8"/>
    <rect x="36" y="512" width="34" height="30" rx="3" fill="#15803d"/>
    <text x="53" y="534" text-anchor="middle" font-family="Arial" font-weight="700" font-size="22" fill="#ffffff">C</text>
    <text class="panel-title-green" x="84" y="532">Core idea: sparse supports become discrete basin indicators</text>

    <g id="support-extraction" inkscape:label="Support extraction">
      <rect class="box" x="44" y="560" width="222" height="232" rx="8"/>
      <text class="label" x="62" y="586" font-weight="700">Extract support S(x)</text>
      <text class="label-small" x="62" y="608">Sparse code z</text>
      <g transform="translate(62 622)">
        <rect class="cell" x="0" y="0" width="18" height="22"/>
        <rect class="cell-purple" x="20" y="0" width="18" height="22"/>
        <rect class="cell" x="40" y="0" width="18" height="22"/>
        <rect class="cell" x="60" y="0" width="18" height="22"/>
        <rect class="cell-purple" x="80" y="0" width="18" height="22"/>
        <rect class="cell" x="100" y="0" width="18" height="22"/>
        <rect class="cell" x="120" y="0" width="18" height="22"/>
        <rect class="cell-purple" x="140" y="0" width="18" height="22"/>
        <rect class="cell" x="160" y="0" width="18" height="22"/>
        <text class="label-tiny" x="111" y="15" text-anchor="middle">...</text>
      </g>
      <path class="flow-thin" d="M 153 658 L 153 690"/>
      <text class="label-small" x="62" y="712">Threshold/top-k mask</text>
      <g transform="translate(62 726)">
        <rect class="cell" x="0" y="0" width="18" height="22"/><text class="label-tiny" x="9" y="15" text-anchor="middle">0</text>
        <rect class="cell-dark" x="20" y="0" width="18" height="22"/><text class="label-tiny" x="29" y="15" text-anchor="middle" fill="#ffffff">1</text>
        <rect class="cell" x="40" y="0" width="18" height="22"/><text class="label-tiny" x="49" y="15" text-anchor="middle">0</text>
        <rect class="cell" x="60" y="0" width="18" height="22"/><text class="label-tiny" x="69" y="15" text-anchor="middle">0</text>
        <rect class="cell-dark" x="80" y="0" width="18" height="22"/><text class="label-tiny" x="89" y="15" text-anchor="middle" fill="#ffffff">1</text>
        <rect class="cell" x="100" y="0" width="18" height="22"/><text class="label-tiny" x="109" y="15" text-anchor="middle">0</text>
        <rect class="cell" x="120" y="0" width="18" height="22"/><text class="label-tiny" x="129" y="15" text-anchor="middle">0</text>
        <rect class="cell-dark" x="140" y="0" width="18" height="22"/><text class="label-tiny" x="149" y="15" text-anchor="middle" fill="#ffffff">1</text>
        <rect class="cell" x="160" y="0" width="18" height="22"/><text class="label-tiny" x="169" y="15" text-anchor="middle">0</text>
      </g>
      <text class="math-small" x="153" y="772" text-anchor="middle">S(x) = {active coordinates}</text>
    </g>

    <g id="support-family-grouping" inkscape:label="Support family grouping">
      <rect class="box-purple" x="286" y="560" width="236" height="232" rx="8"/>
      <text class="label" x="304" y="586" font-weight="700">Group nearby supports</text>
      <text class="label-small" x="304" y="608">Exact masks can vary near</text>
      <text class="label-small" x="304" y="625">boundaries or with thresholds.</text>
      <text class="label-small" x="304" y="655">Family by overlap:</text>
      <text class="math-small" x="304" y="678">J(S_i,S_j)=|S_i cap S_j|/|S_i cup S_j|</text>
      <g transform="translate(314 698)">
        <rect class="cell-blue" x="0" y="0" width="16" height="18"/><rect class="cell" x="18" y="0" width="16" height="18"/><rect class="cell-blue" x="36" y="0" width="16" height="18"/><rect class="cell" x="54" y="0" width="16" height="18"/><rect class="cell" x="72" y="0" width="16" height="18"/><rect class="cell-blue" x="90" y="0" width="16" height="18"/>
        <rect class="cell-blue" x="0" y="24" width="16" height="18"/><rect class="cell" x="18" y="24" width="16" height="18"/><rect class="cell-blue" x="36" y="24" width="16" height="18"/><rect class="cell" x="54" y="24" width="16" height="18"/><rect class="cell-blue" x="72" y="24" width="16" height="18"/><rect class="cell" x="90" y="24" width="16" height="18"/>
        <text class="label-tiny" x="130" y="14">Family A</text>
        <rect class="cell-orange" x="0" y="60" width="16" height="18"/><rect class="cell" x="18" y="60" width="16" height="18"/><rect class="cell" x="36" y="60" width="16" height="18"/><rect class="cell-orange" x="54" y="60" width="16" height="18"/><rect class="cell" x="72" y="60" width="16" height="18"/><rect class="cell-orange" x="90" y="60" width="16" height="18"/>
        <rect class="cell" x="0" y="84" width="16" height="18"/><rect class="cell-orange" x="18" y="84" width="16" height="18"/><rect class="cell" x="36" y="84" width="16" height="18"/><rect class="cell-orange" x="54" y="84" width="16" height="18"/><rect class="cell" x="72" y="84" width="16" height="18"/><rect class="cell-orange" x="90" y="84" width="16" height="18"/>
        <text class="label-tiny" x="130" y="74">Family B</text>
      </g>
    </g>

    <g id="support-map-to-state-space" inkscape:label="Support families map to basins">
      <rect class="box-green" x="542" y="560" width="222" height="232" rx="8"/>
      <text class="label" x="560" y="586" font-weight="700">Support family maps to chart</text>
      <rect x="565" y="606" width="176" height="116" fill="#ffffff" stroke="#cbd5e1" stroke-width="1.1"/>
      <path class="axis" d="M 582 707 L 724 707"/>
      <path class="axis" d="M 582 707 L 582 622"/>
      <text class="math-small" x="728" y="718">x1</text>
      <text class="math-small" x="569" y="624">x2</text>
      <g id="colored-state-clusters" inkscape:label="Colored state clusters">
        <circle cx="614" cy="654" r="4" fill="#2563eb"/><circle cx="630" cy="638" r="4" fill="#2563eb"/><circle cx="643" cy="663" r="4" fill="#2563eb"/><circle cx="624" cy="677" r="4" fill="#2563eb"/><circle cx="652" cy="645" r="4" fill="#2563eb"/>
        <circle cx="679" cy="637" r="4" fill="#ea580c"/><circle cx="696" cy="651" r="4" fill="#ea580c"/><circle cx="709" cy="629" r="4" fill="#ea580c"/><circle cx="684" cy="671" r="4" fill="#ea580c"/><circle cx="714" cy="662" r="4" fill="#ea580c"/>
        <circle cx="648" cy="699" r="4" fill="#16a34a"/><circle cx="666" cy="690" r="4" fill="#16a34a"/><circle cx="686" cy="700" r="4" fill="#16a34a"/><circle cx="630" cy="696" r="4" fill="#16a34a"/>
      </g>
      <path class="dash" d="M 650 647 C 664 657 672 673 672 692"/>
      <path class="dash" d="M 658 680 C 659 663 664 649 678 640"/>
      <text class="label-tiny" x="613" y="632" fill="#2563eb">Family A</text>
      <text class="label-tiny" x="676" y="622" fill="#ea580c">Family B</text>
      <text class="label-tiny" x="653" y="720" fill="#15803d">Family C</text>
      <text class="label-small" x="560" y="752">Support identifies the chart;</text>
      <text class="label-small" x="560" y="771">z_S locates the state inside it.</text>
    </g>

    <g id="no-labels-callout" inkscape:label="No labels callout">
      <rect x="308" y="802" width="430" height="24" rx="12" fill="#f8fafc" stroke="#94a3b8"/>
      <text class="label-small" x="523" y="819" text-anchor="middle">No basin labels, basin count, or oracle routing are required during training/deployment.</text>
    </g>
  </g>

  <!-- Panel D -->
  <g id="panel-d-routing-refresh" inkscape:label="Panel D - support routed prediction and refresh">
    <rect class="panel-purple" x="820" y="500" width="960" height="340" rx="8"/>
    <rect x="836" y="512" width="34" height="30" rx="3" fill="#6d28d9"/>
    <text x="853" y="534" text-anchor="middle" font-family="Arial" font-weight="700" font-size="22" fill="#ffffff">D</text>
    <text class="panel-title-purple" x="884" y="532">Deployment mechanism: support-routed prediction with periodic re-encoding</text>

    <g id="routing-flow" inkscape:label="Routing and refresh flow">
      <rect class="box-purple" x="846" y="572" width="62" height="42" rx="6"/><text class="math-small" x="877" y="598" text-anchor="middle">x_k</text>
      <path class="flow-thin" d="M 910 593 L 948 593"/>
      <rect class="box-purple" x="952" y="572" width="62" height="42" rx="6"/><text class="math-small" x="983" y="598" text-anchor="middle">E</text>
      <path class="flow-thin" d="M 1016 593 L 1055 593"/>
      <g transform="translate(1060 576)">
        <rect class="cell" x="0" y="0" width="15" height="20"/><rect class="cell-blue" x="17" y="0" width="15" height="20"/><rect class="cell" x="34" y="0" width="15" height="20"/><rect class="cell" x="51" y="0" width="15" height="20"/><rect class="cell-blue" x="68" y="0" width="15" height="20"/><rect class="cell" x="85" y="0" width="15" height="20"/>
      </g>
      <text class="label-tiny" x="1110" y="570" text-anchor="middle">support S_k</text>
      <path class="flow-thin" d="M 1168 593 L 1208 593"/>
      <rect class="box-blue" x="1212" y="568" width="88" height="50" rx="6"/>
      <text class="math-small" x="1256" y="588" text-anchor="middle">select</text>
      <text class="math-small" x="1256" y="607" text-anchor="middle">K_S</text>
      <path class="flow-thin" d="M 1302 593 L 1340 593"/>
      <rect class="box-blue" x="1344" y="568" width="92" height="50" rx="6"/>
      <text class="label-small" x="1390" y="588" text-anchor="middle">roll out</text>
      <text class="math-small" x="1390" y="607" text-anchor="middle">m steps</text>
      <path class="flow-thin" d="M 1438 593 L 1476 593"/>
      <rect class="box-green" x="1480" y="572" width="72" height="42" rx="6"/>
      <text class="math-small" x="1516" y="598" text-anchor="middle">D</text>
      <path class="flow-thin" d="M 1554 593 L 1592 593"/>
      <rect class="box-purple" x="1596" y="572" width="72" height="42" rx="6"/>
      <text class="math-small" x="1632" y="598" text-anchor="middle">E</text>
      <path class="flow-thin" d="M 1670 593 L 1708 593"/>
      <g transform="translate(1712 576)">
        <rect class="cell" x="0" y="0" width="15" height="20"/><rect class="cell-orange" x="17" y="0" width="15" height="20"/><rect class="cell-orange" x="34" y="0" width="15" height="20"/><rect class="cell" x="51" y="0" width="15" height="20"/>
      </g>
      <text class="label-tiny" x="1737" y="570" text-anchor="middle">refreshed S</text>
    </g>

    <g id="trajectory-refresh-story" inkscape:label="Trajectory and support refresh story">
      <rect x="848" y="640" width="548" height="150" rx="8" fill="#ffffff" stroke="#cbd5e1" stroke-width="1.2"/>
      <text class="label-small" x="866" y="662" font-weight="700">Trajectory crosses regions; support is refreshed after each decoded rollout</text>
      <ellipse class="contour-blue" cx="930" cy="720" rx="58" ry="28"/>
      <ellipse class="contour-blue" cx="930" cy="720" rx="40" ry="19"/>
      <ellipse class="contour-orange" cx="1110" cy="712" rx="56" ry="28"/>
      <ellipse class="contour-orange" cx="1110" cy="712" rx="38" ry="19"/>
      <ellipse class="contour-green" cx="1290" cy="720" rx="62" ry="30"/>
      <ellipse class="contour-green" cx="1290" cy="720" rx="42" ry="20"/>
      <path d="M 885 745 C 925 720 956 716 990 730 C 1034 748 1070 713 1110 704 C 1160 692 1190 732 1224 729 C 1258 725 1288 696 1346 704"
            fill="none" stroke="#0f172a" stroke-width="2.1"/>
      <circle cx="885" cy="745" r="4" fill="#0f172a"/><circle cx="930" cy="724" r="4" fill="#0f172a"/><circle cx="990" cy="730" r="4" fill="#0f172a"/><circle cx="1065" cy="717" r="4" fill="#0f172a"/><circle cx="1110" cy="704" r="4" fill="#0f172a"/><circle cx="1178" cy="716" r="4" fill="#0f172a"/><circle cx="1224" cy="729" r="4" fill="#0f172a"/><circle cx="1288" cy="696" r="4" fill="#0f172a"/><circle cx="1346" cy="704" r="4" fill="#0f172a"/>
      <line class="dash" x1="1000" y1="668" x2="1000" y2="778"/>
      <line class="dash" x1="1190" y1="668" x2="1190" y2="778"/>
      <text class="label-tiny" x="912" y="686" fill="#2563eb">blue chart</text>
      <text class="label-tiny" x="1094" y="683" fill="#ea580c">orange chart</text>
      <text class="label-tiny" x="1276" y="685" fill="#15803d">green chart</text>
      <text class="label-tiny" x="1000" y="790" text-anchor="middle">re-encode</text>
      <text class="label-tiny" x="1190" y="790" text-anchor="middle">re-encode</text>
    </g>

    <g id="fixed-vs-refresh-concept" inkscape:label="Stale support vs refreshed support concept">
      <rect class="box-red" x="1414" y="642" width="158" height="66" rx="7"/>
      <text class="label-small" x="1493" y="664" text-anchor="middle" fill="#991b1b" font-weight="700">fixed support</text>
      <text class="label-tiny" x="1493" y="683" text-anchor="middle">continues using old chart</text>
      <path d="M 1446 694 L 1540 694" stroke="#dc2626" stroke-width="2" stroke-dasharray="6 4" marker-end="url(#arrow-dark)"/>
      <text x="1552" y="700" text-anchor="middle" font-family="Arial" font-size="26" font-weight="700" fill="#dc2626">X</text>

      <rect class="box-green" x="1590" y="642" width="160" height="66" rx="7"/>
      <text class="label-small" x="1670" y="664" text-anchor="middle" fill="#166534" font-weight="700">refreshed support</text>
      <text class="label-tiny" x="1670" y="683" text-anchor="middle">re-selects current chart</text>
      <path d="M 1621 696 C 1645 684 1674 684 1718 696" fill="none" stroke="#16a34a" stroke-width="2" marker-end="url(#arrow-green)"/>

      <rect class="box-blue" x="1414" y="724" width="336" height="66" rx="7"/>
      <text class="label-small" x="1432" y="748" font-weight="700">Support-routed local predictor</text>
      <text class="label-small" x="1432" y="771">S(x) selects the relevant active coordinates or local K_S.</text>
    </g>

    <g id="refresh-equation-strip" inkscape:label="Refresh equation strip">
      <rect x="854" y="804" width="896" height="22" rx="11" fill="#f8fafc" stroke="#c4b5fd"/>
      <text class="math-small" x="1302" y="820" text-anchor="middle">z_k = E(x_k),  z_{k+m} = K_S^m z_k,  xhat_{k+m}=D(z_{k+m}),  refreshed support = S(E(xhat_{k+m}))</text>
    </g>
  </g>

  <!-- Bottom contribution strip -->
  <g id="bottom-core-idea" inkscape:label="Bottom core idea contribution strip">
    <rect x="20" y="865" width="1760" height="92" rx="10" fill="#fffaf0" stroke="#d97706" stroke-width="2"/>
    <g id="lightbulb-icon" inkscape:label="Simple lightbulb icon" transform="translate(62 887)">
      <circle cx="28" cy="26" r="17" fill="#fef3c7" stroke="#ca8a04" stroke-width="2"/>
      <path d="M 19 26 C 22 18 34 18 37 26 C 38 32 33 35 33 42 L 23 42 C 23 35 18 32 19 26 z" fill="#fde68a" stroke="#ca8a04" stroke-width="1.5"/>
      <rect x="22" y="43" width="12" height="5" fill="#ca8a04"/>
      <path class="star-line" d="M 28 0 L 28 9"/><path class="star-line" d="M 0 26 L 10 26"/><path class="star-line" d="M 56 26 L 46 26"/>
      <path class="star-line" d="M 8 6 L 15 13"/><path class="star-line" d="M 48 6 L 41 13"/>
    </g>
    <text class="label" x="138" y="902" font-weight="700" font-size="22">Core contribution:</text>
    <text class="label" x="330" y="902" font-size="20">sparse latent codes expose a discrete support for each state.</text>
    <text class="label" x="138" y="932" font-size="20">Support families act as label-free basin charts; re-encoding lets the chart update during rollout.</text>

    <g id="contribution-flow" inkscape:label="Contribution flow badges">
      <rect class="box-purple" x="1100" y="888" width="130" height="34" rx="7"/>
      <text class="label-small" x="1165" y="910" text-anchor="middle" font-weight="700">Sparse code</text>
      <path class="flow-thin" d="M 1234 905 L 1278 905"/>
      <rect class="box-green" x="1282" y="888" width="150" height="34" rx="7"/>
      <text class="label-small" x="1357" y="910" text-anchor="middle" font-weight="700">Support family</text>
      <path class="flow-thin" d="M 1436 905 L 1480 905"/>
      <rect class="box-blue" x="1484" y="888" width="158" height="34" rx="7"/>
      <text class="label-small" x="1563" y="910" text-anchor="middle" font-weight="700">Routed K_S</text>
      <path class="flow-thin" d="M 1646 905 L 1688 905"/>
      <rect class="box-orange" x="1692" y="888" width="70" height="34" rx="7"/>
      <text class="label-small" x="1727" y="910" text-anchor="middle" font-weight="700">Rollout</text>
    </g>
  </g>
</svg>
